<svg height="512pt" viewBox="-9 0 512 512" width="512pt" xmlns="http://www.w3.org/2000/svg"><path d="m247.515625 404.96875 114.785156 38.261719c4.285157 1.429687 8.710938-1.761719 8.710938-6.277344v-23.75l87.8125-36.589844c4.789062-1.996093 5.523437-8.476562 1.300781-11.496093l-47.949219-34.246094 57.300781-42.972656c3.933594-2.953126 3.386719-9.015626-1.011718-11.214844l-23.355469-11.675782 49.195313-98.390624c2.796874-5.597657-3.011719-11.589844-8.695313-8.96875l-89.898437 41.492187-11.742188-23.484375c-2.183594-4.371094-8.1875-4.945312-11.164062-1.074219l-51.335938 66.734375c-4.664062 6.066406-14.238281.972656-11.820312-6.289062l33.773437-101.316406c1.421875-4.265626-1.75-8.667969-6.246094-8.667969h-40.261719l21.546876-71.832031c1.429687-4.757813-2.726563-9.324219-7.597657-8.351563l-30.417969 6.085937-27.210937-47.625c-2.527344-4.425781-8.910156-4.425781-11.4375 0l-27.214844 47.621094-30.414062-6.082031c-4.871094-.972656-9.027344 3.59375-7.601563 8.351563l21.550782 71.828124h-40.261719c-4.496094 0-7.671875 4.40625-6.25 8.671876l33.773437 101.316406c2.421875 7.261718-7.152344 12.351562-11.820312 6.285156l-51.332032-66.734375c-2.980468-3.871094-8.984374-3.292969-11.167968 1.078125l-11.742188 23.484375-89.898437-41.492187c-5.679688-2.625-11.492188 3.371093-8.691407 8.96875l49.191407 98.386718-23.351563 11.679688c-4.402344 2.199218-4.949218 8.261718-1.011718 11.214844l57.296874 42.972656-47.949218 34.246094c-4.222656 3.019531-3.488282 9.5 1.304687 11.496093l87.808594 36.589844v23.75c0 4.515625 4.425781 7.707031 8.710937 6.277344zm0 0" fill="#ff8086"/><g fill="#e5646e"><path d="m485.613281 157.648438-89.902343 41.492187-11.742188-23.484375c-2.183594-4.371094-8.1875-4.945312-11.164062-1.074219l-51.335938 66.734375c-2.496094 3.246094-6.402344 3.300782-9.117188 1.53125l-64.835937 162.121094 245.765625-245.765625c-1.800781-1.976563-4.753906-2.902344-7.667969-1.554687zm0 0"/><path d="m241.796875 3.320312-27.214844 47.625-30.414062-6.085937c-4.871094-.972656-9.027344 3.59375-7.601563 8.351563l21.550782 71.832031h-40.261719c-4.496094 0-7.671875 4.402343-6.25 8.667969l33.773437 101.316406c1.460938 4.382812-1.445312 7.976562-5.007812 8.800781l67.144531 161.140625v-404.96875c-2.226563 0-4.453125 1.105469-5.71875 3.320312zm0 0"/><path d="m.726562 166.617188 49.191407 98.386718-23.355469 11.679688c-4.398438 2.199218-4.945312 8.261718-1.007812 11.210937l57.296874 42.976563-47.949218 34.246094c-4.222656 3.019531-3.488282 9.5 1.304687 11.496093l87.808594 36.585938v23.75c0 4.519531 4.425781 7.707031 8.710937 6.28125l114.789063-38.261719-245.769531-245.757812c-1.7070315 1.871093-2.382813 4.683593-1.019532 7.40625zm0 0"/></g><path d="m467.398438 185.085938c-3.214844-3.214844-8.425782-3.214844-11.640626 0l-200.007812 200.007812v-157.84375l71.683594-71.6875c3.214844-3.214844 3.214844-8.425781 0-11.640625-3.214844-3.21875-8.425782-3.21875-11.640625 0l-60.042969 60.042969v-111.855469c0-4.546875-3.683594-8.234375-8.234375-8.234375s-8.234375 3.6875-8.234375 8.234375v111.855469l-60.042969-60.042969c-3.214843-3.21875-8.425781-3.21875-11.640625 0-3.21875 3.214844-3.21875 8.425781 0 11.640625l71.683594 71.683594v157.847656l-200.007812-200.007812c-3.214844-3.214844-8.425782-3.214844-11.640626 0-3.214843 3.214843-3.214843 8.425781 0 11.640624l193.042969 193.046876-102.898437-25.726563c-4.402344-1.128906-8.882813 1.585937-9.976563 5.992187-1.109375 4.414063 1.578125 8.882813 5.992188 9.984376l125.488281 31.375v92.367187c0 4.546875 3.683594 8.234375 8.234375 8.234375s8.234375-3.6875 8.234375-8.234375v-92.367187l125.488281-31.375c4.414063-1.101563 7.101563-5.570313 5.992188-9.984376-1.101563-4.40625-5.574219-7.117187-9.980469-5.992187l-102.898438 25.726563 193.046876-193.046876c3.214843-3.214843 3.214843-8.425781 0-11.640624zm0 0" fill="#ffa95f"/><path d="m315.792969 325.050781-60.042969 60.042969v-103.621094c0-4.546875-3.6875-8.234375-8.234375-8.234375s-8.234375 3.6875-8.234375 8.234375v103.621094l-60.042969-60.042969c-5.1875-5.1875-14.054687-1.515625-14.054687 5.820313 0 2.183594.867187 4.277344 2.410156 5.820312l53.082031 53.082032-45.261719-11.316407c-5.195312-1.300781-10.230468 2.632813-10.230468 7.988281 0 3.777344 2.570312 7.070313 6.234375 7.984376l61.628906 15.40625c3.664063.917968 6.234375 4.210937 6.234375 7.988281v85.941406c0 4.546875 3.683594 8.230469 8.234375 8.230469s8.230469-3.683594 8.230469-8.230469v-85.941406c0-3.777344 2.570312-7.070313 6.238281-7.988281l61.625-15.40625c3.664063-.914063 6.234375-4.207032 6.234375-7.984376 0-5.355468-5.03125-9.289062-10.230469-7.988281l-45.261719 11.316407 53.082032-53.082032c1.542968-1.542968 2.410156-3.636718 2.410156-5.820312.003906-7.335938-8.863281-11.007813-14.050781-5.820313zm0 0" fill="#ffc269"/><path d="m247.515625 512c-4.546875 0-8.234375-3.6875-8.234375-8.234375v-16.464844c0-4.546875 3.6875-8.234375 8.234375-8.234375s8.234375 3.6875 8.234375 8.234375v16.464844c0 4.546875-3.6875 8.234375-8.234375 8.234375zm0 0" fill="#ffe07d"/></svg>