<svg height="480pt" viewBox="0 -16 480.00792 480" width="480pt" xmlns="http://www.w3.org/2000/svg" xmlns:xlink="http://www.w3.org/1999/xlink"><linearGradient id="a"><stop offset="0" stop-color="#20d6de"/><stop offset="1" stop-color="#c24ad2"/></linearGradient><linearGradient id="b" gradientUnits="userSpaceOnUse" x1=".007915" x2="477.463915" xlink:href="#a" y1="224.047237" y2="224.047237"/><linearGradient id="c" gradientUnits="userSpaceOnUse" x1=".007915" x2="477.463915" xlink:href="#a" y1="188.047237" y2="188.047237"/><linearGradient id="d" gradientUnits="userSpaceOnUse" x1=".007915" x2="477.463915" xlink:href="#a" y1="128.047237" y2="128.047237"/><linearGradient id="e" gradientUnits="userSpaceOnUse" x1=".007915" x2="477.463915" xlink:href="#a" y1="296.047237" y2="296.047237"/><linearGradient id="f" gradientUnits="userSpaceOnUse" x1=".007915" x2="477.463915" xlink:href="#a" y1="120.047237" y2="120.047237"/><linearGradient id="g" gradientUnits="userSpaceOnUse" x1=".007915" x2="477.463915" xlink:href="#a" y1="184.047237" y2="184.047237"/><linearGradient id="h" gradientUnits="userSpaceOnUse" x1=".007915" x2="477.463915" xlink:href="#a" y1="272.047237" y2="272.047237"/><linearGradient id="i" gradientUnits="userSpaceOnUse" x1=".007915" x2="477.463915" xlink:href="#a" y1="384.047237" y2="384.047237"/><linearGradient id="j" gradientUnits="userSpaceOnUse" x1=".007915" x2="477.463915" xlink:href="#a" y1="432.047237" y2="432.047237"/><linearGradient id="k" gradientUnits="userSpaceOnUse" x1=".007915" x2="477.463915" xlink:href="#a" y1="190.879237" y2="190.879237"/><linearGradient id="l" gradientUnits="userSpaceOnUse" x1=".006861" x2="477.462861" xlink:href="#a" y1="292.039975" y2="292.039975"/><path d="m256.007812.046875c-51.546874-1.039063-101.714843 16.691406-141.160156 49.886719-2.992187 2.511718-3.730468 6.816406-1.75 10.183594 1.980469 3.367187 6.101563 4.8125 9.75 3.417968 17.070313-5.90625 35.121094-8.449218 53.160156-7.488281 48.042969-.160156 93.601563 21.347656 124.003907 58.546875 30.40625 37.199219 42.417969 86.121094 32.699219 133.171875-12.605469-16.082031-32.304688-24.949219-52.703126-23.71875-30.328124 0-53.519531 15.199219-62.023437 40h-1.976563c-28.710937 0-48 16.082031-48 40v16c0 4.417969 3.582032 8 8 8h114.230469c-30.015625 30.796875-71.226562 48.113281-114.230469 48-29.53125.671875-58.621093-7.238281-83.742187-22.777344-3.304687-2.074219-7.621094-1.46875-10.222656 1.4375-2.601563 2.90625-2.726563 7.265625-.300781 10.316407 42.28125 52.9375 106.519531 83.542968 174.265624 83.023437 123.710938 0 224-100.289063 224-224s-100.289062-224-224-224zm-72 304c0-17.695313 16.527344-24 32-24h8c3.726563.003906 6.960938-2.570313 7.800782-6.199219 4.878906-21.167968 22.894531-33.800781 48.199218-33.800781 25.761719 0 41.128907 10.914063 48.351563 34.398437 1.050781 3.339844 4.148437 5.609376 7.648437 5.601563h8c28.199219 0 32 12.136719 32 24v8h-192zm72 128c-48.480468.277344-95.511718-16.507813-132.863281-47.414063 17.167969 5.027344 34.976563 7.523438 52.863281 7.414063 52.535157.125 102.34375-23.375 135.65625-64h72.34375c4.417969 0 8-3.582031 8-8v-16c0-14.785156-6.167968-39.457031-46.808593-39.953125 15.222656-53.066406 4.605469-110.203125-28.664063-154.257812-33.269531-44.058594-85.320312-69.90625-140.527344-69.789063-7.015624 0-13.472656.136719-19.601562.511719 30.546875-16.582032 64.847656-25.023438 99.601562-24.511719 114.875 0 208 93.125 208 208s-93.125 208-208 208zm0 0" fill="url(#b)"/><path d="m8.007812 224.046875h144c4.417969 0 8-3.582031 8-8v-8c.605469-8.65625-2.570312-17.152344-8.710937-23.289063-6.136719-6.136718-14.628906-9.316406-23.289063-8.710937h-2.480468c-7.269532-16.136719-22.222656-24-45.519532-24-21.847656 0-39.023437 9.222656-45.695312 24h-2.304688c-8.542968-.191406-16.796874 3.117187-22.839843 9.160156s-9.351563 14.296875-9.1601565 22.839844v8c0 4.417969 3.5820315 8 7.9999995 8zm24-32h8c3.714844 0 6.945313-2.558594 7.792969-6.175781 3.0625-13.160156 19.261719-17.824219 32.207031-17.824219 23.417969 0 29.390626 8.800781 32.359376 18.398437 1.050781 3.335938 4.144531 5.605469 7.640624 5.601563h8c4.386719-.546875 8.785157.960937 11.910157 4.089844 3.128906 3.125 4.636719 7.523437 4.089843 11.910156h-128c-.199218-4.300781 1.421876-8.488281 4.464844-11.535156 3.046875-3.042969 7.234375-4.664063 11.535156-4.464844zm0 0" fill="url(#c)"/><path d="m240.007812 120.046875c-13.253906 0-24-10.746094-24-24 0-4.417969-3.582031-8-8-8-4.417968 0-8 3.582031-8 8 0 13.253906-10.746093 24-24 24-4.417968 0-8 3.582031-8 8s3.582032 8 8 8c13.253907 0 24 10.746094 24 24 0 4.417969 3.582032 8 8 8 4.417969 0 8-3.582031 8-8 0-13.253906 10.746094-24 24-24 4.417969 0 8-3.582031 8-8s-3.582031-8-8-8zm-32 16.25c-2.332031-3.140625-5.109374-5.917969-8.246093-8.25 3.136719-2.332031 5.914062-5.109375 8.246093-8.246094 2.332032 3.136719 5.109376 5.914063 8.25 8.246094-3.140624 2.332031-5.917968 5.109375-8.25 8.25zm0 0" fill="url(#d)"/><path d="m72.007812 288.046875c-13.253906 0-24-10.746094-24-24 0-4.417969-3.582031-8-8-8-4.417968 0-8 3.582031-8 8 0 13.253906-10.746093 24-24 24-4.417968 0-7.9999995 3.582031-7.9999995 8s3.5820315 8 7.9999995 8c13.253907 0 24 10.746094 24 24 0 4.417969 3.582032 8 8 8 4.417969 0 8-3.582031 8-8 0-13.253906 10.746094-24 24-24 4.417969 0 8-3.582031 8-8s-3.582031-8-8-8zm-32 16.25c-2.332031-3.140625-5.109374-5.917969-8.246093-8.25 3.136719-2.332031 5.914062-5.109375 8.246093-8.246094 2.332032 3.136719 5.109376 5.914063 8.25 8.246094-3.140624 2.332031-5.917968 5.109375-8.25 8.25zm0 0" fill="url(#e)"/><path d="m112.007812 112.046875h16v16h-16zm0 0" fill="url(#f)"/><path d="m248.007812 176.046875h16v16h-16zm0 0" fill="url(#g)"/><path d="m120.007812 264.046875h16v16h-16zm0 0" fill="url(#h)"/><path d="m16.007812 376.046875h16v16h-16zm0 0" fill="url(#i)"/><path d="m408.007812 424.046875h16v16h-16zm0 0" fill="url(#j)"/><path d="m432.007812 224.046875c.152344 15.484375-2.414062 30.878906-7.59375 45.472656l15.203126 5.054688c5.691406-16.230469 8.53125-33.324219 8.390624-50.527344-.632812-42.480469-15.277343-83.566406-41.65625-116.871094l-12.6875 9.742188c24.222657 30.515625 37.703126 68.171875 38.34375 107.128906zm0 0" fill="url(#k)"/><path d="m412.429688 295.199219 7.15625-14.308594 16 7.996094-7.15625 14.3125zm0 0" fill="url(#l)"/></svg>